<?xml version="1.0" encoding="UTF-8"?>
<svg width="29px" height="41px" viewBox="0 0 29 41" version="1.1" xmlns="http://www.w3.org/2000/svg" xmlns:xlink="http://www.w3.org/1999/xlink">
    <!-- Generator: Sketch 51.1 (57501) - http://www.bohemiancoding.com/sketch -->
    <title>logo/iso+wave</title>
    <desc>Created with Sketch.</desc>
    <defs></defs>
    <g id="Page-1" stroke="none" stroke-width="1" fill="none" fill-rule="evenodd">
        <g id="Desktop-HD" transform="translate(-250.000000, -18.000000)" fill="#0057FF">
            <g id="nav-bar" transform="translate(251.000000, 18.000000)">
                <g id="logo/iso+wave">
                    <g id="Group-2-Copy" transform="translate(-0.334286, 0.163640)">
                        <path d="M25.5994135,11.4073796 L25.5994135,9.54383496 C25.5994135,8.16404855 24.4471542,7.04497467 23.025101,7.04497467 L14.7179445,7.04497467 L14.7179445,5.34419202 L14.8231178,5.30308563 C15.8217142,4.91279011 16.4893464,3.97057171 16.4893464,2.90806411 C16.4893464,1.48303282 15.2993212,0.327280714 13.8306814,0.327280714 C12.3620416,0.327280714 11.1720164,1.48303282 11.1720164,2.90806411 C11.1720164,3.97057171 11.8396486,4.91279011 12.838245,5.30308563 L12.9434184,5.34419202 L12.9434184,7.08593622 L4.75224651,7.08593622 C3.33019329,7.08593622 2.17793399,8.2050101 2.17793399,9.58479651 L2.17793399,18.0843178 C2.17793399,19.4641042 3.33019329,20.5831781 4.75224651,20.5831781 L12.9434184,20.5831781 L12.9434184,30.8436344 L4.75224651,30.8436344 C4.31083635,30.8436344 3.9524601,30.4955794 3.9524601,30.0655708 L3.9524601,28.3863531 L5.56570115,28.3863531 L5.56570115,26.6655564 L0.50142859,26.6655564 L0.50142859,28.3863531 L2.17793399,28.3863531 L2.17793399,30.0655708 C2.17793399,31.4453572 3.33019329,32.5644311 4.75224651,32.5644311 L23.025101,32.5644311 C24.4471542,32.5644311 25.5994135,31.4453572 25.5994135,30.0655708 L25.5994135,28.3863531 L27.2442867,28.3863531 L27.2442867,26.6655564 L22.1800142,26.6655564 L22.1800142,28.3863531 L23.8248874,28.3863531 L23.8248874,30.0655708 C23.8248874,30.4955794 23.4665112,30.8436344 23.025101,30.8436344 L14.7179445,30.8436344 L14.7179445,20.5831781 L23.025101,20.5831781 C23.4665112,20.5831781 23.8248874,20.931233 23.8248874,21.3612417 L23.8248874,23.9472631 L25.5994135,23.9472631 L25.5994135,21.3612417 C25.5994135,19.9814553 24.4471542,18.8623814 23.025101,18.8623814 L14.7179445,18.8623814 L14.7179445,8.76577138 L23.025101,8.76577138 C23.4665112,8.76577138 23.8248874,9.11382629 23.8248874,9.54383496 L23.8248874,11.4073796 L22.1800142,11.4073796 L22.1800142,13.1281763 L27.2442867,13.1281763 L27.2442867,11.4073796 L25.5994135,11.4073796 Z M15.0522302,6.71769395 L23.025101,6.71769395 C24.6311758,6.71769395 25.9336992,7.98270436 25.9336992,9.54383496 L25.9336992,11.0800989 L27.5785725,11.0800989 L27.5785725,13.455457 L21.8457285,13.455457 L21.8457285,11.0800989 L23.4906017,11.0800989 L23.4906017,9.54383496 C23.4906017,9.29517048 23.2824896,9.09305209 23.025101,9.09305209 L15.0522302,9.09305209 L15.0522302,18.5351007 L23.025101,18.5351007 C24.6311758,18.5351007 25.9336992,19.8001111 25.9336992,21.3612417 L25.9336992,24.2745438 L23.4906017,24.2745438 L23.4906017,21.3612417 C23.4906017,21.1125772 23.2824896,20.9104588 23.025101,20.9104588 L15.0522302,20.9104588 L15.0522302,30.5163536 L23.025101,30.5163536 C23.2824896,30.5163536 23.4906017,30.3142352 23.4906017,30.0655708 L23.4906017,28.7136338 L22.0128713,28.7136338 L21.8457285,28.7136338 L21.8457285,26.3382757 L27.5785725,26.3382757 L27.5785725,28.7136338 L25.9336992,28.7136338 L25.9336992,30.0655708 C25.9336992,31.6267014 24.6311758,32.8917118 23.025101,32.8917118 L4.75224651,32.8917118 C3.14617174,32.8917118 1.84364827,31.6267014 1.84364827,30.0655708 L1.84364827,28.7136338 L0.167142863,28.7136338 L0.167142863,26.3382757 L5.89998687,26.3382757 L5.89998687,28.7136338 L4.28674582,28.7136338 L4.28674582,30.0655708 C4.28674582,30.3142352 4.4948579,30.5163536 4.75224651,30.5163536 L12.6091327,30.5163536 L12.6091327,20.9104588 L4.75224651,20.9104588 C3.14617174,20.9104588 1.84364827,19.6454484 1.84364827,18.0843178 L1.84364827,9.58479651 C1.84364827,8.02366591 3.14617174,6.7586555 4.75224651,6.7586555 L12.6091327,6.7586555 L12.6091327,5.56365789 C11.543347,5.10056668 10.8377307,4.06818167 10.8377307,2.90806411 C10.8377307,1.30168863 12.1780201,0 13.8306814,0 C15.4833428,0 16.8236321,1.30168863 16.8236321,2.90806411 C16.8236321,4.06818167 16.1180159,5.10056668 15.0522302,5.56365789 L15.0522302,6.71769395 Z M12.9434184,18.8623814 L12.7762755,18.8623814 L4.75224651,18.8623814 C4.31083635,18.8623814 3.9524601,18.5143265 3.9524601,18.0843178 L3.9524601,9.58479651 C3.9524601,9.15478784 4.31083635,8.80673293 4.75224651,8.80673293 L12.9434184,8.80673293 L12.9434184,18.8623814 Z M12.6091327,9.13401364 L4.75224651,9.13401364 C4.4948579,9.13401364 4.28674582,9.33613203 4.28674582,9.58479651 L4.28674582,18.0843178 C4.28674582,18.3329823 4.4948579,18.5351007 4.75224651,18.5351007 L12.6091327,18.5351007 L12.6091327,9.13401364 Z M14.8850873,6.88133431 L23.025101,6.88133431 C24.539165,6.88133431 25.7665564,8.07337646 25.7665564,9.54383496 L25.7665564,11.2437392 L27.4114296,11.2437392 L27.4114296,13.2918167 L22.0128713,13.2918167 L22.0128713,11.2437392 L23.6577446,11.2437392 L23.6577446,9.54383496 C23.6577446,9.20449839 23.3745004,8.92941174 23.025101,8.92941174 L14.8850873,8.92941174 L14.8850873,18.6987411 L23.025101,18.6987411 C24.539165,18.6987411 25.7665564,19.8907832 25.7665564,21.3612417 L25.7665564,24.1109035 L23.6577446,24.1109035 L23.6577446,21.3612417 C23.6577446,21.0219051 23.3745004,20.7468185 23.025101,20.7468185 L14.8850873,20.7468185 L14.8850873,30.679994 L23.025101,30.679994 C23.3745004,30.679994 23.6577446,30.4049073 23.6577446,30.0655708 L23.6577446,28.5499935 L22.0128713,28.5499935 L22.0128713,26.501916 L27.4114296,26.501916 L27.4114296,28.5499935 L25.7665564,28.5499935 L25.7665564,30.0655708 C25.7665564,31.5360293 24.539165,32.7280714 23.025101,32.7280714 L4.75224651,32.7280714 C3.23818251,32.7280714 2.01079113,31.5360293 2.01079113,30.0655708 L2.01079113,28.5499935 L0.334285727,28.5499935 L0.334285727,26.501916 L5.73284401,26.501916 L5.73284401,28.5499935 L4.11960296,28.5499935 L4.11960296,30.0655708 C4.11960296,30.4049073 4.40284712,30.679994 4.75224651,30.679994 L12.7762755,30.679994 L12.7762755,20.7468185 L11.2384904,20.7468185 L4.75224651,20.7468185 C3.23818251,20.7468185 2.01079113,19.5547763 2.01079113,18.0843178 L2.01079113,9.58479651 C2.01079113,8.11433801 3.23818251,6.92229586 4.75224651,6.92229586 L12.7762755,6.92229586 L12.7762755,5.45506328 C11.737885,5.04921448 11.0048736,4.06177593 11.0048736,2.90806411 C11.0048736,1.39236072 12.2700309,0.163640357 13.8306814,0.163640357 C15.391332,0.163640357 16.6564893,1.39236072 16.6564893,2.90806411 C16.6564893,4.06177593 15.9234778,5.04921448 14.8850873,5.45506328 L14.8850873,6.88133431 Z M12.7762755,18.6987411 L12.7762755,8.97037329 L4.75224651,8.97037329 C4.40284712,8.97037329 4.11960296,9.24545993 4.11960296,9.58479651 L4.11960296,18.0843178 C4.11960296,18.4236544 4.40284712,18.6987411 4.75224651,18.6987411 L11.2384904,18.6987411 L12.7762755,18.6987411 Z M13.8306814,3.60441043 C14.2266674,3.60441043 14.5476775,3.29264556 14.5476775,2.90806411 C14.5476775,2.52348265 14.2266674,2.21171778 13.8306814,2.21171778 C13.4346955,2.21171778 13.1136854,2.52348265 13.1136854,2.90806411 C13.1136854,3.29264556 13.4346955,3.60441043 13.8306814,3.60441043 Z" id="Combined-Shape" fill-rule="nonzero"></path>
                        <path d="M2.67428582,38.0524071 L3.68199674,36.1645189 L7.87061242,38.2812081 C8.28104877,38.4886194 8.76925323,38.490013 9.18093325,38.2849485 L12.2969659,36.7328018 C13.3292212,36.2186185 14.5523049,36.2173659 15.5856705,36.7294335 L18.7273792,38.2862565 C19.1395319,38.4904921 19.6277711,38.4880825 20.0377732,38.2797893 L24.1993505,36.1655858 L25.2112726,38.0513402 L21.0496953,40.1655438 C20.0126311,40.6924029 18.7776732,40.6984978 17.7351694,40.1819019 L14.5934606,38.6250788 C14.1849208,38.4226335 13.701376,38.4231288 13.2932751,38.6264105 L10.1772424,40.1785572 C9.13593414,40.6972498 7.90106402,40.6937249 6.86290149,40.1690963 L2.67428582,38.0524071 Z" id="Combined-Shape" fill-rule="nonzero"></path>
                    </g>
                </g>
            </g>
        </g>
    </g>
</svg>